<?xml version="1.0" encoding="utf-8"?>
<!-- Generator: Adobe Illustrator 27.4.0, SVG Export Plug-In . SVG Version: 6.00 Build 0)  -->
<svg version="1.1" id="Layer_1" xmlns="http://www.w3.org/2000/svg" xmlns:xlink="http://www.w3.org/1999/xlink" x="0px" y="0px"
	 width="179px" height="320px" viewBox="0 0 179 320" style="enable-background:new 0 0 179 320;" xml:space="preserve">
<style type="text/css">
	.st0{fill:#FFFFFF;}
</style>
<g>
	<path class="st0" d="M42.8,29.1v21.4l21.4,0.2c23.1,0.2,23.1,0.2,24.3,3.2c0.3,0.8,0.7,13.7,0.8,31c0.2,22.7,0.5,31,1.1,35.4
		c2.2,14.9,6.2,25.9,13.1,35.4l3,4.2l-3,4.2c-6,8.5-10.2,19.1-12.4,31.7l-1.2,6.8l-2.4,0.4c-8,1.5-18.7-3-26.3-11.1l-3.6-3.8H34.7
		H11.8l0.3,1.5c0.8,3.2,3.7,10.9,5.4,14.4c3.3,6.6,8.5,13.7,14.2,19.3c13.8,13.8,31.6,21.4,51,21.7l6.5,0.1v10.2
		c0,6.3-0.2,10.7-0.6,11.4c-1.3,2.4-2.9,2.6-25,2.6H42.8v21.5v21.5h20c20.6,0,26.3-0.4,33.4-2.2c15.5-4,27.5-14.9,32.7-29.9
		c2.7-7.7,2.7-8.3,3.2-42.5c0.4-34.9,0.5-36.2,3.5-43.7c2.6-6.5,7.1-10.3,15.6-13.2c2.2-0.8,5-2,6.2-2.7c3.1-1.9,6.6-5.8,8.3-9.5
		c1.3-2.7,1.5-3.8,1.5-8.8c0-4.8-0.2-6.2-1.3-8.4c-2.8-6.2-7.1-9.7-15.1-12.6c-11.1-4-14.5-8.1-17.5-20.7c-0.8-3.2-1-9.1-1.3-36.2
		l-0.4-32.4l-1.4-5.4c-4-15-12.1-24.9-25.5-31.3c-9.5-4.6-16.5-5.4-43-5.4h-19v21.7H42.8z"/>
	<path class="st0" d="M47.2,82.6C42.8,84,38.5,88,36.1,93.1c-4.6,9.4-4.7,23.1-0.3,32.4c1.9,4.1,5.8,8.5,8.9,10.2
		c3,1.6,8.4,1.6,11.5,0c4.6-2.4,8.9-8.2,10.9-14.9c1.4-4.5,1.7-14.6,0.6-19.6c-1.6-7.8-6.2-14.9-11.3-17.5
		C53.9,82.5,49.3,81.9,47.2,82.6z"/>
</g>
</svg>
