<?xml version="1.0" encoding="utf-8"?>
<!-- Generator: Adobe Illustrator 27.4.0, SVG Export Plug-In . SVG Version: 6.00 Build 0)  -->
<svg version="1.1" id="Layer_1" xmlns="http://www.w3.org/2000/svg" xmlns:xlink="http://www.w3.org/1999/xlink" x="0px" y="0px"
	 width="285.2px" height="109.5px" viewBox="0 0 285.2 109.5" style="enable-background:new 0 0 285.2 109.5;" xml:space="preserve"
	>
<style type="text/css">
	.st0{fill:#FFFFFF;}
</style>
<g>
	<g>
		<path class="st0" d="M0,75.1v34.4h142.6h142.6V75.1V40.7H142.6H0V75.1z M41.1,56c1.3,0.3,3.4,1.1,4.8,1.8c2.5,1.2,6.8,4.7,6.8,5.5
			c0,0.2-1.9,2.1-4.2,4.2l-4.2,3.8l-1.6-1.4c-3.5-3.2-8.3-4.1-12-2.2c-3.5,1.7-5.1,4.8-5,9.6c0.1,6.3,4.3,10.3,10.3,9.8
			c2.6-0.2,4.8-1.3,6.7-3.2l1.5-1.5l4.2,3.8c2.3,2,4.2,3.9,4.3,4.1c0.2,0.8-3.8,4.3-6.7,5.7c-3.6,1.8-6.7,2.4-11.6,2.4
			c-4.6,0-7.4-0.6-11.3-2.5C14.5,91.8,10,82.4,11.8,72.7c2-10.9,11.7-18,23.7-17.4C37.3,55.4,39.9,55.7,41.1,56z M98.9,55.5
			c5.8,0.8,10.3,3.1,14,7c3.8,4,5.5,8.5,5.5,14.4c0,6.2-1.8,10.6-6,14.9c-4.5,4.5-10,6.6-17.2,6.6S82.5,96.3,78,91.8
			c-4.2-4.2-6-8.6-6-14.9c0-5.8,1.7-10.3,5.4-14.2c3.5-3.8,7.6-5.9,13.1-7C93.6,55.1,95.6,55,98.9,55.5z M169,57
			c3.7,1,7.2,2.8,9.8,5.3c3.8,3.6,5.6,7.6,5.9,13.2c0.6,10.5-5.3,18.4-15.8,21.1c-2.6,0.7-4.1,0.7-15.2,0.9l-12.4,0.2V76.9V56.1
			l12.7,0.2C164.5,56.4,167.1,56.5,169,57z M241,61.4v5.3h-9.8h-9.8V69v2.3h8.6h8.6v5.1v5.1H230h-8.6v2.6v2.6h10.2h10.2v5.4v5.4
			l-17.1-0.1l-17.1-0.1l-0.1-20.2c0-11.1,0-20.4,0.1-20.6c0.1-0.3,3.8-0.4,16.9-0.4h16.7v5.3H241z M274.7,83.8
			c3.2,1.6,4.6,4.9,3.7,8.5c-0.9,3.6-3.6,5.7-7.3,5.7c-4.6,0-7.9-3.1-8-7.5C263,84.6,269.2,81,274.7,83.8z"/>
		<path class="st0" d="M91.5,67.4C89.6,68.2,87.9,70,87,72c-1.1,2.4-1.1,7.6,0.1,9.8c1.9,3.6,4.2,5.1,8.1,5.1c3.2,0,4.9-0.8,6.8-3.1
			c1.7-2,2.5-4.6,2.2-7.8c-0.4-5.8-3.8-9.3-9.1-9.3C93.7,66.7,92.4,67,91.5,67.4z"/>
		<path class="st0" d="M155.3,76.7v9.7h4.2c6,0,8.4-1.2,10.1-4.9c0.8-1.6,0.9-2.5,0.9-4.8c0-3.2-0.5-4.7-2.3-6.7
			c-1.9-2.1-3.7-2.7-8.6-2.9l-4.3-0.1L155.3,76.7L155.3,76.7z"/>
		<g>
			<path class="st0" d="M32.7,28.6H11.3V0.4h8.5v21.4h12.9V28.6z"/>
			<path class="st0" d="M57.7,20H43.1c0.3,1.3,1,2.3,2.1,3.1c1.1,0.8,2.4,1.2,3.8,1.2c2.5,0,5.2-0.7,8.2-2.1v4.5
				c-1.1,0.6-2.4,1.1-3.9,1.5s-3.5,0.7-5.8,0.7c-2.5,0-4.7-0.5-6.5-1.4s-3.1-2.2-4-3.9c-0.9-1.6-1.3-3.5-1.3-5.5s0.4-3.9,1.3-5.5
				c0.9-1.6,2.2-2.9,4-3.8c1.8-0.9,4-1.4,6.5-1.4c1.7,0,3.3,0.4,4.9,1.1c1.6,0.7,2.9,1.9,3.9,3.6c1,1.6,1.5,3.8,1.5,6.4L57.7,20
				L57.7,20z M50.8,16.4c0-1.3-0.3-2.4-1-3.2S48.2,12,47,12s-2.2,0.4-3,1.2s-1.1,1.9-1.1,3.2H50.8z"/>
			<path class="st0" d="M77.6,27.4c-0.8,0.4-1.8,0.7-3.1,1.1c-1.3,0.3-2.6,0.5-3.8,0.5c-5.3,0-7.9-2.6-7.9-7.7V13h-3.3v-1.3l9.8-10
				h0.8v6.2h7V13h-7v6.6c0,0.8,0,1.4,0.1,1.9s0.4,0.9,0.8,1.2c0.4,0.3,1.1,0.5,2,0.5c1.2,0,2.7-0.5,4.6-1.5L77.6,27.4L77.6,27.4z"/>
			<path class="st0" d="M90.7,6.4c0,0.9-0.2,1.8-0.5,2.8c-0.4,1-0.9,1.9-1.7,2.7c-0.8,0.9-1.8,1.6-3,2.2s-2.7,1-4.3,1.3v-1.3
				c2.1-0.8,3.2-2.6,3.2-5.4V8.3c-2.1-0.6-3.2-1.9-3.2-4c0-0.7,0.2-1.4,0.6-2.1c0.4-0.7,0.9-1.2,1.6-1.6C84.1,0.2,84.8,0,85.6,0
				c1.2,0,2.1,0.3,2.9,1c0.8,0.6,1.4,1.5,1.8,2.4C90.6,4.4,90.7,5.4,90.7,6.4z"/>
			<path class="st0" d="M110.2,22.6c0,1.9-0.7,3.4-2.1,4.6c-1.4,1.2-3.5,1.8-6.2,1.8c-1.5,0-2.9-0.1-4.1-0.4s-2.5-0.7-3.9-1.2v-5.2
				c1.2,0.7,2.3,1.2,3.2,1.6s1.9,0.5,3,0.5c1.8,0,2.7-0.5,2.7-1.5c0-0.3-0.1-0.6-0.4-0.9c-0.3-0.3-0.7-0.6-1.4-0.9s-1.5-0.7-2.6-1.2
				c-1.4-0.6-2.5-1.4-3.5-2.4c-0.9-1-1.4-2.2-1.4-3.7c0-1,0.3-2,0.9-3C95,9.8,96,9,97.3,8.4c1.3-0.6,2.8-0.9,4.6-0.9
				c0.4,0,1,0,1.7,0.1s1.5,0.2,2.5,0.5s2,0.6,2.9,1.1v5.1c-0.4-0.3-0.8-0.5-1.1-0.7s-0.7-0.4-1.2-0.6c-0.5-0.2-1.1-0.4-1.7-0.6
				c-0.7-0.2-1.3-0.3-2-0.3c-0.8,0-1.4,0.2-1.7,0.5s-0.5,0.7-0.5,1s0.2,0.7,0.5,0.9c0.3,0.3,1.1,0.7,2.2,1.1
				c1.6,0.6,2.9,1.3,3.9,1.9c1,0.7,1.7,1.4,2.1,2.2C110,20.6,110.2,21.5,110.2,22.6z"/>
		</g>
	</g>
</g>
</svg>
