<?xml version="1.0" encoding="utf-8"?>
<!-- Generator: Adobe Illustrator 27.3.1, SVG Export Plug-In . SVG Version: 6.00 Build 0)  -->
<svg version="1.1" id="Layer_1" xmlns="http://www.w3.org/2000/svg" xmlns:xlink="http://www.w3.org/1999/xlink" x="0px" y="0px"
	 width="400px" height="209px" viewBox="0 0 400 209" style="enable-background:new 0 0 400 209;" xml:space="preserve">
<g>
	<path d="M20,20v13.8L33.8,34c14.9,0.1,14.9,0.1,15.7,2c0.2,0.5,0.4,8.8,0.5,20c0.1,14.6,0.3,20,0.7,22.9c1.4,9.6,4,16.7,8.4,22.9
		l2,2.7l-2,2.7c-3.9,5.5-6.6,12.3-8,20.5l-0.8,4.4l-1.6,0.3c-5.2,0.9-12-1.9-17-7.1l-2.3-2.5H14.7H0l0.2,0.9
		c0.5,2.1,2.4,7.1,3.5,9.3c2.1,4.2,5.5,8.8,9.1,12.4c8.9,8.9,20.4,13.8,32.9,14l4.2,0.1v6.6c0,4.1-0.1,6.9-0.4,7.3
		c-0.8,1.6-1.9,1.7-16.1,1.7H20V189v13.9h12.9c13.3,0,17-0.2,21.5-1.4c10-2.6,17.7-9.6,21.1-19.3c1.7-5,1.8-5.4,2-27.4
		c0.3-22.5,0.4-23.4,2.3-28.2c1.7-4.2,4.6-6.6,10-8.5c1.4-0.5,3.2-1.3,4-1.7c2-1.2,4.3-3.8,5.4-6.1c0.8-1.8,0.9-2.4,0.9-5.7
		c0-3.1-0.1-4-0.8-5.4c-1.8-4-4.6-6.3-9.7-8.1c-7.1-2.6-9.4-5.2-11.3-13.3c-0.5-2.1-0.6-5.9-0.8-23.4l-0.2-20.9l-0.9-3.5
		c-2.6-9.7-7.8-16-16.5-20.2c-6.1-2.9-10.6-3.5-27.7-3.5H20V20z"/>
	<path d="M22.8,63.9c-2.8,0.9-5.6,3.5-7.2,6.7c-2.9,6.1-3.1,14.9-0.2,20.9c1.2,2.6,3.8,5.5,5.7,6.6c2,1,5.4,1.1,7.4,0
		c3-1.6,5.7-5.3,7-9.6c0.9-2.9,1.1-9.4,0.4-12.6c-1.1-5.1-4-9.6-7.3-11.3C27.1,63.8,24.2,63.4,22.8,63.9z"/>
	<g>
		<path d="M114.8,124.8v34.4h142.6H400v-34.4V90.4H257.4H114.8V124.8z M155.9,105.7c1.3,0.3,3.4,1.1,4.8,1.8
			c2.5,1.2,6.8,4.7,6.8,5.5c0,0.2-1.9,2.1-4.2,4.2l-4.2,3.8l-1.6-1.4c-3.5-3.2-8.3-4.1-12-2.2c-3.5,1.7-5.1,4.8-5,9.6
			c0.1,6.3,4.3,10.3,10.3,9.8c2.6-0.2,4.8-1.3,6.7-3.2l1.5-1.5l4.2,3.8c2.3,2,4.2,3.9,4.3,4.1c0.2,0.8-3.8,4.3-6.7,5.7
			c-3.6,1.8-6.7,2.4-11.6,2.4c-4.6,0-7.4-0.6-11.3-2.5c-8.6-4.1-13.1-13.5-11.3-23.2c2-10.9,11.7-18,23.7-17.4
			C152.1,105.1,154.7,105.4,155.9,105.7z M213.7,105.2c5.8,0.8,10.3,3.1,14,7c3.8,4,5.5,8.5,5.5,14.4c0,6.2-1.8,10.6-6,14.9
			c-4.5,4.5-10,6.6-17.2,6.6c-7.2,0-12.7-2.1-17.2-6.6c-4.2-4.2-6-8.6-6-14.9c0-5.8,1.7-10.3,5.4-14.2c3.5-3.8,7.6-5.9,13.1-7
			C208.4,104.8,210.4,104.7,213.7,105.2z M283.8,106.7c3.7,1,7.2,2.8,9.8,5.3c3.8,3.6,5.6,7.6,5.9,13.2c0.6,10.5-5.3,18.4-15.8,21.1
			c-2.6,0.7-4.1,0.7-15.2,0.9l-12.4,0.2v-20.8v-20.8l12.7,0.2C279.3,106.1,281.9,106.2,283.8,106.7z M355.8,111.1v5.3h-9.8h-9.8v2.3
			v2.3h8.6h8.6v5.1v5.1h-8.6h-8.6v2.6v2.6h10.2h10.2v5.4v5.4l-17.1-0.1l-17.1-0.1l-0.1-20.2c0-11.1,0-20.4,0.1-20.6
			c0.1-0.3,3.8-0.4,16.9-0.4h16.7V111.1z M389.5,133.5c3.2,1.6,4.6,4.9,3.7,8.5c-0.9,3.6-3.6,5.7-7.3,5.7c-4.6,0-7.9-3.1-8-7.5
			C377.8,134.3,384,130.7,389.5,133.5z"/>
		<path d="M206.3,117.1c-1.9,0.8-3.6,2.6-4.5,4.6c-1.1,2.4-1.1,7.6,0.1,9.8c1.9,3.6,4.2,5.1,8.1,5.1c3.2,0,4.9-0.8,6.8-3.1
			c1.7-2,2.5-4.6,2.2-7.8c-0.4-5.8-3.8-9.3-9.1-9.3C208.5,116.4,207.2,116.7,206.3,117.1z"/>
		<path d="M270.1,126.4v9.7h4.2c6,0,8.4-1.2,10.1-4.9c0.8-1.6,0.9-2.5,0.9-4.8c0-3.2-0.5-4.7-2.3-6.7c-1.9-2.1-3.7-2.7-8.6-2.9
			l-4.3-0.1V126.4z"/>
		<g>
			<path d="M147.5,78.3h-21.4V50.1h8.5v21.4h12.9V78.3z"/>
			<path d="M172.5,69.7h-14.6c0.3,1.3,1,2.3,2.1,3.1c1.1,0.8,2.4,1.2,3.8,1.2c2.5,0,5.2-0.7,8.2-2.1v4.5c-1.1,0.6-2.4,1.1-3.9,1.5
				s-3.5,0.7-5.8,0.7c-2.5,0-4.7-0.5-6.5-1.4c-1.8-0.9-3.1-2.2-4-3.9c-0.9-1.6-1.3-3.5-1.3-5.5c0-2,0.4-3.9,1.3-5.5
				c0.9-1.6,2.2-2.9,4-3.8c1.8-0.9,4-1.4,6.5-1.4c1.7,0,3.3,0.4,4.9,1.1c1.6,0.7,2.9,1.9,3.9,3.6c1,1.6,1.5,3.8,1.5,6.4V69.7z
				 M165.6,66.1c0-1.3-0.3-2.4-1-3.2c-0.7-0.8-1.6-1.2-2.8-1.2c-1.2,0-2.2,0.4-3,1.2c-0.8,0.8-1.1,1.9-1.1,3.2H165.6z"/>
			<path d="M192.4,77.1c-0.8,0.4-1.8,0.7-3.1,1.1c-1.3,0.3-2.6,0.5-3.8,0.5c-5.3,0-7.9-2.6-7.9-7.7v-8.3h-3.3v-1.3l9.8-10h0.8v6.2h7
				v5.1h-7v6.6c0,0.8,0,1.4,0.1,1.9c0.1,0.5,0.4,0.9,0.8,1.2c0.4,0.3,1.1,0.5,2,0.5c1.2,0,2.7-0.5,4.6-1.5V77.1z"/>
			<path d="M205.5,56.1c0,0.9-0.2,1.8-0.5,2.8c-0.4,1-0.9,1.9-1.7,2.7c-0.8,0.9-1.8,1.6-3,2.2c-1.2,0.6-2.7,1-4.3,1.3v-1.3
				c2.1-0.8,3.2-2.6,3.2-5.4V58c-2.1-0.6-3.2-1.9-3.2-4c0-0.7,0.2-1.4,0.6-2.1c0.4-0.7,0.9-1.2,1.6-1.6c0.7-0.4,1.4-0.6,2.2-0.6
				c1.2,0,2.1,0.3,2.9,1c0.8,0.6,1.4,1.5,1.8,2.4C205.4,54.1,205.5,55.1,205.5,56.1z"/>
			<path d="M225,72.3c0,1.9-0.7,3.4-2.1,4.6c-1.4,1.2-3.5,1.8-6.2,1.8c-1.5,0-2.9-0.1-4.1-0.4s-2.5-0.7-3.9-1.2v-5.2
				c1.2,0.7,2.3,1.2,3.2,1.6s1.9,0.5,3,0.5c1.8,0,2.7-0.5,2.7-1.5c0-0.3-0.1-0.6-0.4-0.9c-0.3-0.3-0.7-0.6-1.4-0.9
				c-0.7-0.3-1.5-0.7-2.6-1.2c-1.4-0.6-2.5-1.4-3.5-2.4c-0.9-1-1.4-2.2-1.4-3.7c0-1,0.3-2,0.9-3c0.6-0.9,1.6-1.7,2.9-2.3
				c1.3-0.6,2.8-0.9,4.6-0.9c0.4,0,1,0,1.7,0.1s1.5,0.2,2.5,0.5c1,0.3,2,0.6,2.9,1.1V64c-0.4-0.3-0.8-0.5-1.1-0.7
				c-0.3-0.2-0.7-0.4-1.2-0.6c-0.5-0.2-1.1-0.4-1.7-0.6c-0.7-0.2-1.3-0.3-2-0.3c-0.8,0-1.4,0.2-1.7,0.5c-0.3,0.3-0.5,0.7-0.5,1
				c0,0.3,0.2,0.7,0.5,0.9c0.3,0.3,1.1,0.7,2.2,1.1c1.6,0.6,2.9,1.3,3.9,1.9c1,0.7,1.7,1.4,2.1,2.2C224.8,70.3,225,71.2,225,72.3z"
				/>
		</g>
	</g>
</g>
</svg>
